PathFileType	4	(X/Y/Z)	C:/Users/beibeiliu/ov580/test_trc/capture2\sequence.15_training_dense_right.trc
DataRate	CameraRate	NumFrames	NumMarkers	Units	OrigDataRate	OrigDataStartFrame	OrigNumFrames
120	120	12	19	mm	120	1	367
Frame#	Time	ThumbCMC			ThumbMCP			ThumbIP			ThumbTip			IndexMCP			IndexPIP			IndexTip			MiddleMCP			MiddlePIP			MiddleTip			RingMCP			RingPIP			RingTip			PinkyMCP			PinkyPIP			PinkyTip			BackHand1			BackHand2			BackHand3	
		X0	Y0	Z0	X1	Y1	Z1	X2	Y2	Z2	X3	Y3	Z3	X4	Y4	Z4	X5	Y5	Z5	X6	Y6	Z6	X7	Y7	Z7	X8	Y8	Z8	X9	Y9	Z9	X10	Y10	Z10	X11	Y11	Z11	X12	Y12	Z12	X13	Y13	Z13	X14	Y14	Z14	X15	Y15	Z15	X16	Y16	Z16	X17	Y17	Z17	X18	Y18	Z18	
0	0	131.777	39.2213	-24.0981	109.398	29.9634	-44.4635	98.0795	25.7742	-69.3567	90.7061	22.0988	-89.9414	147.096	48.1877	-97.8697	142.603	39.6645	-125.808	139.087	34.2455	-146.82	177.342	45.0848	-101.083	176.411	38.2843	-127.26	182.134	27.4786	-154.892	194.674	37.0599	-95.275	200.299	30.2122	-120.203	206.721	20.7065	-145.879	212.883	25.4729	-79.8123	225.283	18.3359	-96.3549	240.988	16.5774	-111.004	190.576	49.6841	-45.2963	187.527	54.5558	-14.377	159.104	58.8737	-32.3357	
1	0.00833333	129.708	38.6999	-29.2622	113.727	27.8728	-43.6441	99.9397	24.6674	-70.9137	87.5264	21.1228	-87.0881	146.721	46.6522	-97.735	140.123	40.5168	-125.321	142.095	31.4925	-150.039	173.269	44.7766	-100.494	175.735	36.5881	-131.109	181.532	26.934	-156.842	192.452	36.9615	-97.7627	203.823	28.8525	-116.453	205.047	20.4673	-145.399	211.67	24.5526	-79.1498	225.804	17.459	-97.1007	238.626	15.6859	-115.925	189.815	48.5073	-45.2141	187.239	52.823	-14.8001	158.544	59.2468	-35.6419	
2	0.0166667	128.059	39.0381	-24.4478	114.016	27.4707	-46.57	98.3431	24.758	-70.2926	90.2167	21.4725	-89.144	146.931	46.5538	-98.5659	139.504	41.0692	-121.83	142.746	32.6066	-147.284	173.731	44.1631	-105.807	175.262	36.7287	-130.906	181.711	25.8646	-158.176	194.956	36.3552	-96.0747	199.755	29.5859	-117.175	205.299	19.3201	-144.02	212.396	25.4976	-80.6792	224.196	16.4655	-94.8559	237.33	15.8466	-111.931	190.679	48.6895	-46.485	190.403	53.2335	-17.5436	160.331	59.6014	-34.3207	
3	0.025	127.123	39.0594	-27.4911	111.226	27.838	-43.8875	98.9713	24.294	-71.7179	87.6591	20.3525	-89.6437	144.808	46.8019	-96.6847	139.319	39.1352	-125.87	143.714	31.521	-148.868	177.321	43.4116	-103.223	179.098	34.9444	-131.246	183.682	24.6578	-155.69	193.729	37.4093	-97.9755	201.531	28.8987	-121.024	203.888	18.8168	-144.748	211.723	25.373	-79.5345	222.061	17.0089	-93.6655	239.978	14.9816	-114.789	188.087	50.8837	-46.917	188.174	51.5879	-14.9	156.619	58.8592	-38.194	
4	0.0333333	125.999	39.9383	-28.9731	112.039	27.7955	-44.984	98.2015	24.4296	-70.241	88.6295	19.6479	-90.8089	146.215	46.5657	-100.607	139.444	40.9133	-123.095	144.058	31.6294	-148.004	172.384	44.5912	-100.558	176.831	34.503	-131.154	180.67	26.4534	-154.57	192.216	36.393	-93.0554	198.681	28.6948	-121.824	204.429	18.8428	-146.306	211.854	24.4514	-76.4502	224.389	17.1665	-97.8542	239.353	13.3179	-115.513	188.08	49.8312	-43.5836	190.993	52.9077	-14.7753	161.317	57.946	-33.9235	
5	0.0416667	126.935	38.6543	-29.9974	114.265	26.64	-45.7435	100.638	22.7331	-66.3545	90.6202	18.9536	-87.8641	143.525	45.9913	-98.7788	143.652	39.1431	-125.511	138.106	31.9385	-150.789	175.041	43.8432	-100.475	179.344	35.7896	-127.64	180.269	26.8423	-153.122	192.135	36.6981	-96.744	201.872	29.2028	-118.32	202.299	19.4836	-142.544	214.629	24.1264	-79.2942	221.738	18.211	-95.4126	241.759	14.4638	-116.078	192.543	47.9902	-45.8509	188.478	51.879	-17.8412	161.408	57.4408	-37.9027	
6	0.05	128.959	38.2505	-29.3297	110.56	28.3434	-44.8643	95.9758	24.3865	-69.5183	86.7051	19.3515	-87.3711	144.806	46.319	-99.4258	138.362	40.076	-125.874	143.409	31.5553	-149.957	172.548	45.3438	-102.271	176.938	36.5848	-128.357	180.949	26.1602	-155.276	196.152	36.6968	-96.1563	202.771	28.8635	-118.468	205.801	19.2632	-142.341	211.148	25.2453	-77.8732	225.951	16.0719	-95.9261	241.643	13.6109	-116.394	188.817	50.5163	-43.7689	185.76	52.7617	-16.0552	158.894	57.8457	-37.7061	
7	0.0583333	127.495	39.1306	-25.647	111.098	28.734	-45.7376	97.325	24.7606	-68.9042	86.899	20.8867	-89.7503	143.253	47.8066	-100.139	141.741	38.9789	-127.923	141.169	31.5017	-152.763	175.084	44.1433	-103.977	177.614	35.9636	-130.153	184.344	24.2205	-159.054	197.027	35.7409	-96.8361	204.208	28.2711	-119.736	203.602	20.7197	-143.128	211.393	25.4872	-76.6114	222.418	17.7356	-93.9353	242.02	15.1149	-112.892	189.164	51.5291	-48.5042	186.687	53.7879	-14.52	156.859	59.7497	-35.3928	
8	0.0666667	130.61	38.4524	-30.5105	111.108	28.4485	-45.4171	99.6868	24.5014	-67.4714	87.6468	20.3542	-87.4582	145.385	46.6514	-101.366	140.683	40.6399	-126.489	142.951	32.9063	-148.461	175.689	44.4047	-102.714	178.491	34.7592	-132.113	180.796	26.3716	-153.695	193.432	37.3636	-93.6242	200.636	29.3901	-117.452	205.602	19.5393	-145.738	213.53	24.9701	-77.7933	222.903	17.149	-96.7648	241.698	13.2621	-109.805	193.412	50.3259	-46.4171	190.392	52.0306	-17.2663	160.461	57.8973	-34.2001	
9	0.075	128.046	39.9103	-25.7374	110.785	28.0032	-45.9852	98.3544	25.0494	-67.548	87.6217	21.363	-89.5795	147.353	47.523	-101.301	139.192	41.4195	-122.889	141.381	31.1893	-150.772	172.488	45.6553	-105.852	177.395	35.5085	-131.978	179.337	27.7125	-154.872	194.21	37.5453	-93.8555	199.275	30.1746	-117.83	203.433	20.794	-144.388	215.442	24.6102	-77.4548	223.832	17.8091	-95.8401	238.751	17.2701	-113.242	187.708	49.1558	-44.5868	190.186	51.365	-18.4765	162.443	59.4859	-33.3754	
10	0.0833333	130.642	40.0233	-29.1974	108.925	29.8639	-48.3897	95.2867	25.0116	-69.5828	88.5585	20.5589	-91.6983	144.955	48.6626	-97.912	138.49	40.6809	-127.181	144.228	32.9683	-149.159	174.306	44.7905	-104.989	179.309	37.0688	-128.547	181.052	26.6155	-155.181	195.87	37.4876	-97.723	200.566	30.5844	-119.043	203.662	20.8995	-144.571	215.382	24.4167	-78.0011	223.11	18.5692	-96.5182	240.658	17.7318	-116.356	187.683	50.2358	-43.4329	188.548	54.006	-15.2161	160.65	57.7353	-33.546	
11	0.0916667	128.758	39.0801	-25.2462	114.488	28.5494	-46.915	97.5063	24.858	-73.5105	87.1175	20.9873	-93.758	142.997	48.3206	-100.498	141.05	41.3467	-127.11	141.835	31.7871	-151.834	171.13	45.8644	-102.484	177.476	37.0786	-130.592	177.846	27.9476	-156.554	194.78	38.5777	-97.458	201.112	30.2669	-119.024	202.204	19.9371	-146.845	212.334	27.1307	-83.3342	225.503	19.5576	-99.1758	241.164	17.2332	-115.098	190.212	50.4843	-48.6502	187.727	53.442	-17.2069	156.803	58.5863	-38.2678	
